<svg viewBox="0 0 1220 450" xmlns="http://www.w3.org/2000/svg" font-family="'JetBrains Mono','Fira Code','Courier New',monospace">
<defs>
  <filter id="glowGreen" x="-50%" y="-50%" width="200%" height="200%">
    <feGaussianBlur stdDeviation="3.2" result="blur"/>
    <feMerge><feMergeNode in="blur"/><feMergeNode in="SourceGraphic"/></feMerge>
  </filter>
  <filter id="glowRed" x="-50%" y="-50%" width="200%" height="200%">
    <feGaussianBlur stdDeviation="2.4" result="blur"/>
    <feMerge><feMergeNode in="blur"/><feMergeNode in="SourceGraphic"/></feMerge>
  </filter>
  <linearGradient id="bgGrad" x1="0" y1="0" x2="0" y2="1">
    <stop offset="0%" stop-color="#111111"/>
    <stop offset="100%" stop-color="#050505"/>
  </linearGradient>
</defs>
<rect x="0" y="0" width="1220" height="450" fill="url(#bgGrad)" rx="14"/>
<text x="24" y="34" fill="#e8e8e8" font-size="19" font-weight="700" letter-spacing="0.5">Distribution Comparison</text>
<text x="24" y="54" fill="#7CFC00" font-size="12.5" font-weight="600" letter-spacing="2.5">BARYCENTER  vs  ARITHMETIC MEAN</text>
<line x1="24" y1="66" x2="1196" y2="66" stroke="#2a2a2a" stroke-width="1"/>
<rect x="10" y="80" width="1200" height="300" fill="#0c0c0c" stroke="#232323" stroke-width="1" rx="8"/>
<g transform="translate(0,80)">
<path d="M 40.0,255.3 L 51.1,257.5 L 62.2,220.4 L 73.3,199.0 L 84.4,181.8 L 95.6,150.7 L 106.7,115.3 L 117.8,136.1 L 128.9,58.7 L 140.0,67.3 L 151.1,77.8 L 162.2,58.5 L 173.3,37.6 L 184.4,54.8 L 195.6,70.2 L 206.7,89.6 L 217.8,64.8 L 228.9,89.4 L 240.0,104.9 L 251.1,140.7 L 262.2,119.6 L 273.3,173.8 L 284.4,199.3 L 295.6,186.1 L 306.7,252.9 L 317.8,275.5 L 328.9,255.6 L 340.0,262.6 L 351.1,171.1 L 362.2,176.5 L 373.3,164.5 L 384.4,108.0 L 395.6,138.8 L 406.7,77.6 L 417.8,119.7 L 428.9,89.0 L 440.0,78.7 L 451.1,36.5 L 462.2,35.2 L 473.3,60.9 L 484.4,54.2 L 495.6,74.9 L 506.7,82.1 L 517.8,126.7 L 528.9,164.3 L 540.0,183.0 L 551.1,165.8 L 562.2,161.5 L 573.3,220.7 L 584.4,271.5 L 595.6,245.3 L 606.7,259.5 L 617.8,223.1 L 628.9,187.3 L 640.0,165.9 L 651.1,140.8 L 662.2,161.4 L 673.3,91.2 L 684.4,82.3 L 695.6,46.8 L 706.7,77.5 L 717.8,89.2 L 728.9,43.1 L 740.0,33.3 L 751.1,61.2 L 762.2,73.1 L 773.3,101.3 L 784.4,103.8 L 795.6,118.1 L 806.7,151.8 L 817.8,125.3 L 828.9,174.7 L 840.0,195.3 L 851.1,191.2 L 862.2,230.8 L 873.3,275.5 L 884.4,239.1 L 895.6,206.6 L 906.7,209.1 L 917.8,198.5 L 928.9,138.2 L 940.0,106.1 L 951.1,95.9 L 962.2,97.2 L 973.3,77.8 L 984.4,87.8 L 995.6,72.2 L 1006.7,25.5 L 1017.8,28.0 L 1028.9,37.7 L 1040.0,52.8 L 1051.1,67.9 L 1062.2,81.6 L 1073.3,112.3 L 1084.4,151.0 L 1095.6,133.9 L 1106.7,143.0 L 1117.8,176.6 L 1128.9,223.5 L 1140.0,259.1" fill="none" stroke="#3a3a3a" stroke-width="1"/>
<path d="M 40.0,275.5 L 51.1,234.4 L 62.2,260.5 L 73.3,219.2 L 84.4,171.1 L 95.6,133.6 L 106.7,120.0 L 117.8,81.3 L 128.9,105.2 L 140.0,88.3 L 151.1,89.6 L 162.2,71.3 L 173.3,34.1 L 184.4,57.2 L 195.6,54.7 L 206.7,79.1 L 217.8,66.3 L 228.9,92.2 L 240.0,114.1 L 251.1,112.1 L 262.2,139.3 L 273.3,137.9 L 284.4,206.7 L 295.6,235.6 L 306.7,266.4 L 317.8,275.5 L 328.9,250.4 L 340.0,229.1 L 351.1,192.2 L 362.2,159.5 L 373.3,150.9 L 384.4,132.7 L 395.6,92.5 L 406.7,96.1 L 417.8,65.7 L 428.9,53.1 L 440.0,34.1 L 451.1,70.0 L 462.2,64.1 L 473.3,53.3 L 484.4,54.9 L 495.6,116.6 L 506.7,75.3 L 517.8,109.5 L 528.9,119.2 L 540.0,172.1 L 551.1,144.7 L 562.2,202.0 L 573.3,214.4 L 584.4,275.5 L 595.6,265.1 L 606.7,242.3 L 617.8,228.4 L 628.9,204.2 L 640.0,170.3 L 651.1,128.7 L 662.2,149.0 L 673.3,123.0 L 684.4,90.4 L 695.6,69.0 L 706.7,37.8 L 717.8,35.9 L 728.9,89.1 L 740.0,45.5 L 751.1,35.5 L 762.2,68.8 L 773.3,83.8 L 784.4,79.6 L 795.6,118.4 L 806.7,128.4 L 817.8,143.1 L 828.9,156.5 L 840.0,186.7 L 851.1,224.7 L 862.2,240.8 L 873.3,271.1 L 884.4,271.8 L 895.6,223.4 L 906.7,238.4 L 917.8,150.9 L 928.9,151.2 L 940.0,163.6 L 951.1,139.5 L 962.2,99.2 L 973.3,82.2 L 984.4,76.5 L 995.6,49.4 L 1006.7,75.0 L 1017.8,75.4 L 1028.9,42.3 L 1040.0,54.6 L 1051.1,70.2 L 1062.2,71.5 L 1073.3,124.6 L 1084.4,143.4 L 1095.6,121.7 L 1106.7,137.4 L 1117.8,193.1 L 1128.9,182.8 L 1140.0,255.2" fill="none" stroke="#3a3a3a" stroke-width="1"/>
<path d="M 40.0,270.7 L 51.1,250.1 L 62.2,246.3 L 73.3,190.9 L 84.4,174.2 L 95.6,172.7 L 106.7,109.5 L 117.8,116.2 L 128.9,67.5 L 140.0,81.4 L 151.1,52.5 L 162.2,45.8 L 173.3,77.6 L 184.4,94.1 L 195.6,49.0 L 206.7,50.9 L 217.8,88.8 L 228.9,108.6 L 240.0,103.9 L 251.1,177.2 L 262.2,167.6 L 273.3,184.5 L 284.4,196.3 L 295.6,242.3 L 306.7,269.7 L 317.8,275.5 L 328.9,269.2 L 340.0,227.2 L 351.1,207.2 L 362.2,176.7 L 373.3,156.2 L 384.4,106.7 L 395.6,113.8 L 406.7,87.8 L 417.8,65.2 L 428.9,87.2 L 440.0,37.9 L 451.1,47.3 L 462.2,55.2 L 473.3,66.9 L 484.4,75.7 L 495.6,61.7 L 506.7,42.9 L 517.8,130.3 L 528.9,127.9 L 540.0,151.2 L 551.1,157.9 L 562.2,187.6 L 573.3,201.5 L 584.4,275.5 L 595.6,275.5 L 606.7,275.5 L 617.8,225.2 L 628.9,215.3 L 640.0,190.1 L 651.1,130.3 L 662.2,86.7 L 673.3,169.7 L 684.4,102.0 L 695.6,67.4 L 706.7,57.2 L 717.8,68.2 L 728.9,79.6 L 740.0,80.5 L 751.1,27.3 L 762.2,41.9 L 773.3,67.2 L 784.4,99.4 L 795.6,97.4 L 806.7,125.1 L 817.8,139.3 L 828.9,163.7 L 840.0,207.3 L 851.1,211.4 L 862.2,275.5 L 873.3,268.8 L 884.4,225.7 L 895.6,236.3 L 906.7,188.0 L 917.8,193.6 L 928.9,128.3 L 940.0,112.0 L 951.1,96.8 L 962.2,64.6 L 973.3,74.2 L 984.4,74.1 L 995.6,71.5 L 1006.7,48.5 L 1017.8,48.5 L 1028.9,50.7 L 1040.0,75.8 L 1051.1,53.9 L 1062.2,72.8 L 1073.3,109.2 L 1084.4,155.6 L 1095.6,140.3 L 1106.7,146.4 L 1117.8,197.3 L 1128.9,234.0 L 1140.0,248.7" fill="none" stroke="#3a3a3a" stroke-width="1"/>
<path d="M 40.0,275.5 L 51.1,268.7 L 62.2,249.7 L 73.3,240.3 L 84.4,155.7 L 95.6,164.3 L 106.7,106.5 L 117.8,70.2 L 128.9,92.6 L 140.0,36.3 L 151.1,64.5 L 162.2,43.0 L 173.3,49.7 L 184.4,21.9 L 195.6,70.2 L 206.7,47.2 L 217.8,86.5 L 228.9,100.1 L 240.0,95.6 L 251.1,111.6 L 262.2,160.8 L 273.3,161.1 L 284.4,195.1 L 295.6,248.0 L 306.7,235.6 L 317.8,275.5 L 328.9,268.0 L 340.0,207.7 L 351.1,221.2 L 362.2,153.2 L 373.3,160.1 L 384.4,140.0 L 395.6,78.6 L 406.7,96.4 L 417.8,57.1 L 428.9,77.6 L 440.0,72.3 L 451.1,82.7 L 462.2,52.4 L 473.3,37.8 L 484.4,58.7 L 495.6,70.2 L 506.7,101.2 L 517.8,127.4 L 528.9,148.7 L 540.0,140.7 L 551.1,161.6 L 562.2,182.7 L 573.3,214.9 L 584.4,263.4 L 595.6,266.0 L 606.7,226.9 L 617.8,236.0 L 628.9,200.6 L 640.0,148.5 L 651.1,135.0 L 662.2,114.0 L 673.3,120.1 L 684.4,56.8 L 695.6,105.1 L 706.7,89.1 L 717.8,72.3 L 728.9,22.8 L 740.0,45.9 L 751.1,68.2 L 762.2,83.3 L 773.3,57.5 L 784.4,87.0 L 795.6,124.2 L 806.7,160.7 L 817.8,165.5 L 828.9,168.9 L 840.0,191.7 L 851.1,222.3 L 862.2,264.4 L 873.3,275.5 L 884.4,249.1 L 895.6,242.8 L 906.7,194.3 L 917.8,156.2 L 928.9,158.7 L 940.0,149.2 L 951.1,79.6 L 962.2,85.3 L 973.3,91.5 L 984.4,129.4 L 995.6,58.3 L 1006.7,49.6 L 1017.8,37.1 L 1028.9,66.7 L 1040.0,76.0 L 1051.1,76.1 L 1062.2,71.5 L 1073.3,129.4 L 1084.4,129.2 L 1095.6,167.0 L 1106.7,161.6 L 1117.8,224.6 L 1128.9,219.6 L 1140.0,254.9" fill="none" stroke="#3a3a3a" stroke-width="1"/>
<path d="M 40.0,275.5 L 51.1,263.7 L 62.2,256.0 L 73.3,189.6 L 84.4,161.2 L 95.6,140.8 L 106.7,129.1 L 117.8,122.4 L 128.9,102.9 L 140.0,68.9 L 151.1,56.6 L 162.2,52.8 L 173.3,63.5 L 184.4,42.3 L 195.6,55.9 L 206.7,78.5 L 217.8,69.6 L 228.9,76.6 L 240.0,89.8 L 251.1,128.4 L 262.2,145.1 L 273.3,179.1 L 284.4,174.0 L 295.6,264.4 L 306.7,263.6 L 317.8,275.5 L 328.9,242.8 L 340.0,223.4 L 351.1,211.2 L 362.2,195.4 L 373.3,158.7 L 384.4,121.9 L 395.6,105.4 L 406.7,97.3 L 417.8,75.7 L 428.9,61.2 L 440.0,45.6 L 451.1,80.0 L 462.2,57.3 L 473.3,28.0 L 484.4,46.0 L 495.6,76.4 L 506.7,69.5 L 517.8,111.7 L 528.9,117.3 L 540.0,113.7 L 551.1,133.5 L 562.2,228.3 L 573.3,222.8 L 584.4,217.2 L 595.6,275.5 L 606.7,250.6 L 617.8,200.6 L 628.9,198.6 L 640.0,162.1 L 651.1,151.2 L 662.2,149.2 L 673.3,95.0 L 684.4,86.9 L 695.6,62.1 L 706.7,23.3 L 717.8,42.6 L 728.9,55.3 L 740.0,38.0 L 751.1,46.2 L 762.2,44.9 L 773.3,96.4 L 784.4,117.6 L 795.6,138.1 L 806.7,109.3 L 817.8,149.8 L 828.9,187.7 L 840.0,210.1 L 851.1,242.2 L 862.2,266.1 L 873.3,275.5 L 884.4,267.0 L 895.6,198.2 L 906.7,183.5 L 917.8,178.5 L 928.9,150.6 L 940.0,104.3 L 951.1,99.6 L 962.2,86.0 L 973.3,58.0 L 984.4,19.9 L 995.6,70.0 L 1006.7,56.6 L 1017.8,76.2 L 1028.9,59.5 L 1040.0,72.8 L 1051.1,90.1 L 1062.2,94.0 L 1073.3,81.5 L 1084.4,132.0 L 1095.6,156.2 L 1106.7,144.4 L 1117.8,218.8 L 1128.9,250.8 L 1140.0,209.3" fill="none" stroke="#3a3a3a" stroke-width="1"/>
<path d="M 40.0,253.5 L 51.1,275.5 L 62.2,204.6 L 73.3,217.1 L 84.4,152.3 L 95.6,118.5 L 106.7,136.7 L 117.8,121.2 L 128.9,72.2 L 140.0,95.7 L 151.1,70.8 L 162.2,55.8 L 173.3,48.7 L 184.4,73.3 L 195.6,63.6 L 206.7,61.4 L 217.8,45.9 L 228.9,119.3 L 240.0,82.8 L 251.1,104.1 L 262.2,160.3 L 273.3,206.1 L 284.4,190.0 L 295.6,234.2 L 306.7,255.3 L 317.8,262.3 L 328.9,264.0 L 340.0,223.7 L 351.1,186.4 L 362.2,152.5 L 373.3,112.9 L 384.4,79.1 L 395.6,104.5 L 406.7,91.3 L 417.8,40.5 L 428.9,49.8 L 440.0,42.0 L 451.1,65.5 L 462.2,44.2 L 473.3,73.4 L 484.4,64.2 L 495.6,99.7 L 506.7,91.6 L 517.8,110.9 L 528.9,142.5 L 540.0,156.0 L 551.1,169.1 L 562.2,224.7 L 573.3,247.3 L 584.4,265.5 L 595.6,275.5 L 606.7,241.3 L 617.8,243.0 L 628.9,181.4 L 640.0,144.7 L 651.1,182.0 L 662.2,133.5 L 673.3,124.5 L 684.4,113.9 L 695.6,92.9 L 706.7,65.1 L 717.8,44.0 L 728.9,37.2 L 740.0,78.4 L 751.1,63.7 L 762.2,53.8 L 773.3,51.6 L 784.4,137.7 L 795.6,78.0 L 806.7,137.9 L 817.8,110.7 L 828.9,199.4 L 840.0,215.6 L 851.1,231.0 L 862.2,225.2 L 873.3,275.5 L 884.4,275.5 L 895.6,221.8 L 906.7,211.9 L 917.8,185.5 L 928.9,167.6 L 940.0,155.2 L 951.1,113.2 L 962.2,100.5 L 973.3,101.2 L 984.4,57.4 L 995.6,61.9 L 1006.7,91.7 L 1017.8,52.0 L 1028.9,48.1 L 1040.0,46.2 L 1051.1,71.0 L 1062.2,81.9 L 1073.3,84.9 L 1084.4,107.2 L 1095.6,114.9 L 1106.7,180.4 L 1117.8,202.8 L 1128.9,184.0 L 1140.0,222.6" fill="none" stroke="#3a3a3a" stroke-width="1"/>
<path d="M 40.0,275.5 L 51.1,261.5 L 62.2,232.9 L 73.3,195.2 L 84.4,172.5 L 95.6,147.7 L 106.7,122.3 L 117.8,114.8 L 128.9,75.5 L 140.0,58.3 L 151.1,78.1 L 162.2,54.5 L 173.3,50.7 L 184.4,23.8 L 195.6,39.7 L 206.7,78.4 L 217.8,81.6 L 228.9,105.6 L 240.0,132.4 L 251.1,123.3 L 262.2,141.5 L 273.3,151.3 L 284.4,197.2 L 295.6,259.3 L 306.7,245.9 L 317.8,275.5 L 328.9,234.4 L 340.0,223.8 L 351.1,194.4 L 362.2,163.8 L 373.3,122.7 L 384.4,123.1 L 395.6,78.8 L 406.7,103.1 L 417.8,74.5 L 428.9,19.8 L 440.0,56.0 L 451.1,77.3 L 462.2,33.4 L 473.3,47.3 L 484.4,35.7 L 495.6,67.2 L 506.7,79.4 L 517.8,105.7 L 528.9,130.7 L 540.0,108.9 L 551.1,177.6 L 562.2,207.6 L 573.3,238.6 L 584.4,210.6 L 595.6,267.6 L 606.7,268.4 L 617.8,226.3 L 628.9,187.2 L 640.0,149.3 L 651.1,169.2 L 662.2,113.5 L 673.3,114.8 L 684.4,103.4 L 695.6,90.3 L 706.7,51.0 L 717.8,22.5 L 728.9,50.9 L 740.0,54.8 L 751.1,80.3 L 762.2,46.9 L 773.3,67.0 L 784.4,110.6 L 795.6,110.4 L 806.7,112.8 L 817.8,185.4 L 828.9,176.2 L 840.0,191.8 L 851.1,255.4 L 862.2,258.1 L 873.3,275.5 L 884.4,237.0 L 895.6,248.9 L 906.7,184.9 L 917.8,166.6 L 928.9,129.5 L 940.0,116.3 L 951.1,101.6 L 962.2,81.9 L 973.3,110.6 L 984.4,103.0 L 995.6,70.4 L 1006.7,55.6 L 1017.8,32.6 L 1028.9,87.5 L 1040.0,78.9 L 1051.1,98.1 L 1062.2,123.2 L 1073.3,63.9 L 1084.4,126.7 L 1095.6,112.7 L 1106.7,160.0 L 1117.8,221.3 L 1128.9,260.8 L 1140.0,209.4" fill="none" stroke="#3a3a3a" stroke-width="1"/>
<path d="M 40.0,268.6 L 51.1,250.2 L 62.2,267.3 L 73.3,175.6 L 84.4,181.8 L 95.6,124.5 L 106.7,95.7 L 117.8,98.5 L 128.9,61.8 L 140.0,102.1 L 151.1,13.9 L 162.2,59.4 L 173.3,35.3 L 184.4,73.7 L 195.6,74.6 L 206.7,85.5 L 217.8,75.8 L 228.9,102.6 L 240.0,102.0 L 251.1,102.6 L 262.2,145.5 L 273.3,168.2 L 284.4,209.1 L 295.6,185.6 L 306.7,254.0 L 317.8,267.1 L 328.9,275.5 L 340.0,229.9 L 351.1,188.4 L 362.2,177.3 L 373.3,98.6 L 384.4,77.1 L 395.6,133.8 L 406.7,103.8 L 417.8,87.9 L 428.9,25.8 L 440.0,39.7 L 451.1,43.6 L 462.2,84.4 L 473.3,81.6 L 484.4,116.9 L 495.6,109.3 L 506.7,83.5 L 517.8,86.7 L 528.9,141.1 L 540.0,143.4 L 551.1,145.0 L 562.2,196.6 L 573.3,225.1 L 584.4,232.8 L 595.6,272.6 L 606.7,250.9 L 617.8,238.4 L 628.9,202.8 L 640.0,162.7 L 651.1,176.4 L 662.2,99.0 L 673.3,92.9 L 684.4,84.8 L 695.6,36.1 L 706.7,36.5 L 717.8,29.2 L 728.9,56.4 L 740.0,42.8 L 751.1,15.0 L 762.2,79.0 L 773.3,75.8 L 784.4,100.0 L 795.6,95.8 L 806.7,109.4 L 817.8,142.2 L 828.9,163.5 L 840.0,230.3 L 851.1,215.9 L 862.2,227.7 L 873.3,275.5 L 884.4,251.8 L 895.6,208.2 L 906.7,170.9 L 917.8,168.6 L 928.9,183.4 L 940.0,143.1 L 951.1,116.2 L 962.2,118.7 L 973.3,35.7 L 984.4,76.6 L 995.6,49.2 L 1006.7,50.8 L 1017.8,52.8 L 1028.9,23.1 L 1040.0,82.4 L 1051.1,80.3 L 1062.2,83.6 L 1073.3,84.7 L 1084.4,138.5 L 1095.6,175.1 L 1106.7,154.3 L 1117.8,197.9 L 1128.9,183.5 L 1140.0,253.3" fill="none" stroke="#3a3a3a" stroke-width="1"/>
<path d="M 40.0,275.5 L 51.1,243.1 L 62.2,215.2 L 73.3,207.2 L 84.4,191.0 L 95.6,146.4 L 106.7,72.8 L 117.8,78.0 L 128.9,76.1 L 140.0,76.6 L 151.1,75.5 L 162.2,58.5 L 173.3,59.9 L 184.4,40.3 L 195.6,71.7 L 206.7,116.9 L 217.8,92.8 L 228.9,91.2 L 240.0,46.4 L 251.1,113.2 L 262.2,170.4 L 273.3,182.7 L 284.4,218.2 L 295.6,230.0 L 306.7,263.7 L 317.8,275.5 L 328.9,241.3 L 340.0,224.1 L 351.1,200.2 L 362.2,156.3 L 373.3,110.2 L 384.4,120.7 L 395.6,126.1 L 406.7,69.6 L 417.8,103.0 L 428.9,42.2 L 440.0,90.2 L 451.1,68.5 L 462.2,52.8 L 473.3,26.7 L 484.4,82.4 L 495.6,56.5 L 506.7,77.2 L 517.8,130.4 L 528.9,110.4 L 540.0,163.3 L 551.1,200.2 L 562.2,210.8 L 573.3,241.8 L 584.4,254.5 L 595.6,275.5 L 606.7,236.7 L 617.8,220.6 L 628.9,218.6 L 640.0,188.1 L 651.1,149.4 L 662.2,162.1 L 673.3,150.7 L 684.4,113.7 L 695.6,61.7 L 706.7,52.5 L 717.8,54.9 L 728.9,57.3 L 740.0,100.7 L 751.1,64.2 L 762.2,93.9 L 773.3,64.6 L 784.4,83.0 L 795.6,107.6 L 806.7,115.6 L 817.8,144.6 L 828.9,170.3 L 840.0,189.1 L 851.1,232.0 L 862.2,273.7 L 873.3,275.5 L 884.4,230.7 L 895.6,205.8 L 906.7,213.4 L 917.8,153.0 L 928.9,153.0 L 940.0,118.0 L 951.1,121.6 L 962.2,81.0 L 973.3,41.0 L 984.4,38.0 L 995.6,28.0 L 1006.7,78.4 L 1017.8,61.7 L 1028.9,62.1 L 1040.0,58.4 L 1051.1,80.8 L 1062.2,71.6 L 1073.3,114.1 L 1084.4,95.5 L 1095.6,126.6 L 1106.7,196.3 L 1117.8,195.6 L 1128.9,233.6 L 1140.0,231.1" fill="none" stroke="#3a3a3a" stroke-width="1"/>
<path d="M 40.0,270.8 L 51.1,218.0 L 62.2,251.0 L 73.3,193.1 L 84.4,181.9 L 95.6,166.7 L 106.7,125.9 L 117.8,113.9 L 128.9,105.3 L 140.0,93.0 L 151.1,70.3 L 162.2,39.2 L 173.3,28.5 L 184.4,64.9 L 195.6,60.5 L 206.7,69.8 L 217.8,89.2 L 228.9,67.4 L 240.0,122.8 L 251.1,129.2 L 262.2,166.8 L 273.3,171.8 L 284.4,214.5 L 295.6,198.7 L 306.7,268.0 L 317.8,275.5 L 328.9,275.5 L 340.0,250.7 L 351.1,207.1 L 362.2,185.2 L 373.3,143.4 L 384.4,110.2 L 395.6,141.2 L 406.7,81.9 L 417.8,104.3 L 428.9,39.0 L 440.0,48.6 L 451.1,48.9 L 462.2,66.5 L 473.3,67.8 L 484.4,48.9 L 495.6,93.6 L 506.7,82.8 L 517.8,98.8 L 528.9,118.3 L 540.0,152.1 L 551.1,154.2 L 562.2,205.2 L 573.3,162.2 L 584.4,257.1 L 595.6,275.5 L 606.7,237.5 L 617.8,203.1 L 628.9,214.8 L 640.0,199.1 L 651.1,171.9 L 662.2,149.9 L 673.3,120.1 L 684.4,97.1 L 695.6,62.0 L 706.7,47.7 L 717.8,63.3 L 728.9,44.0 L 740.0,31.1 L 751.1,23.2 L 762.2,69.4 L 773.3,94.3 L 784.4,82.3 L 795.6,77.9 L 806.7,130.3 L 817.8,102.6 L 828.9,150.4 L 840.0,196.8 L 851.1,246.5 L 862.2,247.6 L 873.3,275.5 L 884.4,243.9 L 895.6,265.9 L 906.7,159.6 L 917.8,137.7 L 928.9,168.5 L 940.0,166.4 L 951.1,120.6 L 962.2,83.4 L 973.3,49.8 L 984.4,48.2 L 995.6,63.5 L 1006.7,84.1 L 1017.8,39.2 L 1028.9,54.3 L 1040.0,73.7 L 1051.1,80.3 L 1062.2,93.4 L 1073.3,110.3 L 1084.4,148.4 L 1095.6,132.5 L 1106.7,184.4 L 1117.8,170.1 L 1128.9,243.0 L 1140.0,245.4" fill="none" stroke="#3a3a3a" stroke-width="1"/>
<path d="M 40.0,272.9 L 51.1,243.2 L 62.2,236.3 L 73.3,182.8 L 84.4,171.9 L 95.6,123.2 L 106.7,92.5 L 117.8,71.4 L 128.9,95.5 L 140.0,83.7 L 151.1,96.1 L 162.2,61.1 L 173.3,85.4 L 184.4,99.3 L 195.6,69.9 L 206.7,82.7 L 217.8,59.7 L 228.9,54.2 L 240.0,104.9 L 251.1,113.3 L 262.2,169.4 L 273.3,168.2 L 284.4,209.4 L 295.6,245.7 L 306.7,275.5 L 317.8,242.0 L 328.9,275.5 L 340.0,246.6 L 351.1,195.5 L 362.2,180.7 L 373.3,137.1 L 384.4,125.9 L 395.6,120.6 L 406.7,77.6 L 417.8,82.5 L 428.9,90.0 L 440.0,28.3 L 451.1,53.8 L 462.2,34.0 L 473.3,95.7 L 484.4,79.1 L 495.6,80.4 L 506.7,96.5 L 517.8,84.3 L 528.9,159.5 L 540.0,140.7 L 551.1,192.1 L 562.2,168.1 L 573.3,221.9 L 584.4,269.5 L 595.6,242.5 L 606.7,243.0 L 617.8,208.1 L 628.9,237.5 L 640.0,163.5 L 651.1,143.3 L 662.2,126.1 L 673.3,107.1 L 684.4,110.3 L 695.6,139.2 L 706.7,68.7 L 717.8,77.9 L 728.9,55.2 L 740.0,38.6 L 751.1,12.0 L 762.2,54.4 L 773.3,70.7 L 784.4,72.9 L 795.6,95.7 L 806.7,108.4 L 817.8,151.0 L 828.9,167.2 L 840.0,192.9 L 851.1,205.2 L 862.2,239.7 L 873.3,247.4 L 884.4,275.5 L 895.6,222.0 L 906.7,179.4 L 917.8,162.4 L 928.9,164.5 L 940.0,157.2 L 951.1,153.6 L 962.2,102.3 L 973.3,34.7 L 984.4,58.4 L 995.6,84.8 L 1006.7,57.3 L 1017.8,66.1 L 1028.9,57.8 L 1040.0,78.6 L 1051.1,102.3 L 1062.2,85.6 L 1073.3,90.5 L 1084.4,124.8 L 1095.6,124.6 L 1106.7,179.3 L 1117.8,173.0 L 1128.9,222.9 L 1140.0,257.0" fill="none" stroke="#3a3a3a" stroke-width="1"/>
<path d="M 40.0,275.5 L 51.1,259.2 L 62.2,222.9 L 73.3,212.6 L 84.4,200.2 L 95.6,154.6 L 106.7,158.0 L 117.8,135.1 L 128.9,101.4 L 140.0,70.6 L 151.1,63.3 L 162.2,42.4 L 173.3,22.1 L 184.4,29.8 L 195.6,62.2 L 206.7,23.8 L 217.8,48.4 L 228.9,63.6 L 240.0,109.8 L 251.1,118.2 L 262.2,188.5 L 273.3,161.6 L 284.4,234.1 L 295.6,236.0 L 306.7,243.2 L 317.8,275.5 L 328.9,212.9 L 340.0,226.0 L 351.1,195.1 L 362.2,178.3 L 373.3,131.4 L 384.4,114.6 L 395.6,90.8 L 406.7,60.0 L 417.8,68.1 L 428.9,87.6 L 440.0,53.9 L 451.1,22.3 L 462.2,39.5 L 473.3,45.7 L 484.4,35.7 L 495.6,52.1 L 506.7,130.7 L 517.8,79.1 L 528.9,109.9 L 540.0,134.2 L 551.1,180.4 L 562.2,201.1 L 573.3,200.8 L 584.4,275.5 L 595.6,272.6 L 606.7,263.6 L 617.8,195.6 L 628.9,178.3 L 640.0,165.5 L 651.1,136.6 L 662.2,114.2 L 673.3,96.7 L 684.4,87.6 L 695.6,85.2 L 706.7,79.2 L 717.8,70.3 L 728.9,79.2 L 740.0,65.6 L 751.1,48.4 L 762.2,82.3 L 773.3,102.9 L 784.4,64.6 L 795.6,121.8 L 806.7,128.0 L 817.8,172.8 L 828.9,188.7 L 840.0,203.8 L 851.1,189.2 L 862.2,241.8 L 873.3,275.5 L 884.4,239.2 L 895.6,207.0 L 906.7,179.9 L 917.8,187.3 L 928.9,147.6 L 940.0,92.4 L 951.1,126.1 L 962.2,79.8 L 973.3,81.3 L 984.4,82.6 L 995.6,64.2 L 1006.7,29.7 L 1017.8,34.6 L 1028.9,70.0 L 1040.0,61.8 L 1051.1,81.8 L 1062.2,115.4 L 1073.3,95.3 L 1084.4,93.7 L 1095.6,124.8 L 1106.7,171.3 L 1117.8,173.7 L 1128.9,211.1 L 1140.0,259.3" fill="none" stroke="#3a3a3a" stroke-width="1"/>
<path d="M 40.0,275.5 L 51.1,275.5 L 62.2,244.9 L 73.3,178.3 L 84.4,170.6 L 95.6,140.7 L 106.7,159.8 L 117.8,79.3 L 128.9,62.4 L 140.0,60.5 L 151.1,77.7 L 162.2,50.4 L 173.3,26.0 L 184.4,62.2 L 195.6,50.4 L 206.7,65.3 L 217.8,58.6 L 228.9,80.2 L 240.0,106.4 L 251.1,153.1 L 262.2,163.9 L 273.3,149.1 L 284.4,157.4 L 295.6,204.5 L 306.7,215.6 L 317.8,275.5 L 328.9,258.6 L 340.0,224.0 L 351.1,192.0 L 362.2,151.5 L 373.3,180.5 L 384.4,142.4 L 395.6,107.7 L 406.7,96.1 L 417.8,62.8 L 428.9,92.9 L 440.0,32.3 L 451.1,26.9 L 462.2,39.3 L 473.3,34.4 L 484.4,18.2 L 495.6,70.3 L 506.7,69.8 L 517.8,94.4 L 528.9,112.7 L 540.0,148.5 L 551.1,180.8 L 562.2,177.9 L 573.3,230.1 L 584.4,233.1 L 595.6,256.6 L 606.7,250.4 L 617.8,205.9 L 628.9,188.1 L 640.0,172.0 L 651.1,122.2 L 662.2,120.3 L 673.3,110.2 L 684.4,128.5 L 695.6,51.0 L 706.7,88.1 L 717.8,80.8 L 728.9,22.7 L 740.0,17.6 L 751.1,69.9 L 762.2,68.9 L 773.3,57.2 L 784.4,87.5 L 795.6,97.7 L 806.7,143.0 L 817.8,118.0 L 828.9,136.7 L 840.0,224.3 L 851.1,233.4 L 862.2,260.3 L 873.3,261.8 L 884.4,275.5 L 895.6,215.2 L 906.7,197.8 L 917.8,180.6 L 928.9,129.8 L 940.0,167.0 L 951.1,121.5 L 962.2,94.9 L 973.3,68.4 L 984.4,68.6 L 995.6,75.3 L 1006.7,45.4 L 1017.8,52.9 L 1028.9,62.6 L 1040.0,53.7 L 1051.1,65.4 L 1062.2,44.7 L 1073.3,121.4 L 1084.4,133.5 L 1095.6,134.7 L 1106.7,170.9 L 1117.8,163.2 L 1128.9,205.7 L 1140.0,242.3" fill="none" stroke="#3a3a3a" stroke-width="1"/>
<path d="M 40.0,275.5 L 51.1,262.1 L 62.2,226.5 L 73.3,192.6 L 84.4,186.9 L 95.6,124.5 L 106.7,146.0 L 117.8,97.2 L 128.9,102.6 L 140.0,100.4 L 151.1,54.3 L 162.2,30.0 L 173.3,66.2 L 184.4,55.3 L 195.6,63.1 L 206.7,55.6 L 217.8,73.3 L 228.9,94.6 L 240.0,79.5 L 251.1,153.4 L 262.2,151.0 L 273.3,181.4 L 284.4,208.8 L 295.6,251.5 L 306.7,268.7 L 317.8,275.5 L 328.9,248.6 L 340.0,253.9 L 351.1,179.2 L 362.2,167.0 L 373.3,141.1 L 384.4,135.9 L 395.6,135.7 L 406.7,51.5 L 417.8,30.9 L 428.9,61.1 L 440.0,67.1 L 451.1,30.9 L 462.2,44.9 L 473.3,30.0 L 484.4,80.1 L 495.6,69.5 L 506.7,95.0 L 517.8,95.9 L 528.9,142.3 L 540.0,122.9 L 551.1,181.8 L 562.2,220.8 L 573.3,219.8 L 584.4,244.1 L 595.6,275.5 L 606.7,249.0 L 617.8,217.0 L 628.9,184.7 L 640.0,137.1 L 651.1,164.0 L 662.2,124.1 L 673.3,135.1 L 684.4,106.1 L 695.6,85.0 L 706.7,69.8 L 717.8,70.1 L 728.9,43.9 L 740.0,40.3 L 751.1,31.4 L 762.2,66.8 L 773.3,57.1 L 784.4,93.3 L 795.6,104.2 L 806.7,124.0 L 817.8,160.2 L 828.9,230.5 L 840.0,213.9 L 851.1,172.6 L 862.2,248.8 L 873.3,275.5 L 884.4,247.8 L 895.6,206.6 L 906.7,187.9 L 917.8,180.8 L 928.9,169.0 L 940.0,135.5 L 951.1,119.2 L 962.2,100.5 L 973.3,42.2 L 984.4,39.6 L 995.6,68.5 L 1006.7,69.5 L 1017.8,77.7 L 1028.9,40.8 L 1040.0,43.1 L 1051.1,60.8 L 1062.2,71.6 L 1073.3,131.8 L 1084.4,156.9 L 1095.6,123.9 L 1106.7,194.7 L 1117.8,160.3 L 1128.9,266.5 L 1140.0,266.4" fill="none" stroke="#3a3a3a" stroke-width="1"/>
<path d="M 40.0,275.5 L 51.1,275.5 L 62.2,249.6 L 73.3,197.0 L 84.4,170.6 L 95.6,140.0 L 106.7,137.1 L 117.8,93.5 L 128.9,96.4 L 140.0,83.4 L 151.1,57.9 L 162.2,60.8 L 173.3,82.3 L 184.4,23.1 L 195.6,72.3 L 206.7,75.4 L 217.8,58.1 L 228.9,98.7 L 240.0,100.0 L 251.1,122.1 L 262.2,93.6 L 273.3,208.9 L 284.4,194.0 L 295.6,206.9 L 306.7,226.2 L 317.8,275.5 L 328.9,249.4 L 340.0,203.6 L 351.1,202.7 L 362.2,169.0 L 373.3,151.3 L 384.4,123.1 L 395.6,126.0 L 406.7,104.2 L 417.8,85.0 L 428.9,66.9 L 440.0,38.0 L 451.1,58.7 L 462.2,38.5 L 473.3,63.7 L 484.4,37.3 L 495.6,77.0 L 506.7,88.7 L 517.8,129.1 L 528.9,147.3 L 540.0,136.4 L 551.1,185.0 L 562.2,231.8 L 573.3,228.5 L 584.4,272.3 L 595.6,275.5 L 606.7,235.7 L 617.8,226.2 L 628.9,189.0 L 640.0,156.1 L 651.1,165.3 L 662.2,105.4 L 673.3,113.1 L 684.4,101.5 L 695.6,45.2 L 706.7,57.0 L 717.8,69.7 L 728.9,55.2 L 740.0,51.5 L 751.1,80.0 L 762.2,42.1 L 773.3,79.7 L 784.4,120.6 L 795.6,113.6 L 806.7,93.5 L 817.8,174.2 L 828.9,138.7 L 840.0,224.5 L 851.1,220.4 L 862.2,275.5 L 873.3,275.5 L 884.4,255.8 L 895.6,221.0 L 906.7,197.7 L 917.8,186.0 L 928.9,99.2 L 940.0,104.3 L 951.1,110.4 L 962.2,88.8 L 973.3,118.8 L 984.4,73.8 L 995.6,30.9 L 1006.7,60.8 L 1017.8,54.2 L 1028.9,80.3 L 1040.0,61.6 L 1051.1,77.5 L 1062.2,91.1 L 1073.3,97.2 L 1084.4,95.5 L 1095.6,124.7 L 1106.7,206.4 L 1117.8,196.9 L 1128.9,225.6 L 1140.0,272.0" fill="none" stroke="#3a3a3a" stroke-width="1"/>
<path d="M 40.0,237.2 L 51.1,255.5 L 62.2,228.6 L 73.3,217.3 L 84.4,172.7 L 95.6,129.4 L 106.7,129.4 L 117.8,124.6 L 128.9,110.6 L 140.0,67.0 L 151.1,38.1 L 162.2,58.3 L 173.3,50.0 L 184.4,49.3 L 195.6,76.2 L 206.7,77.0 L 217.8,91.9 L 228.9,80.4 L 240.0,96.5 L 251.1,114.8 L 262.2,149.8 L 273.3,155.8 L 284.4,176.6 L 295.6,232.3 L 306.7,243.3 L 317.8,275.5 L 328.9,228.3 L 340.0,235.4 L 351.1,197.3 L 362.2,140.0 L 373.3,173.5 L 384.4,134.5 L 395.6,106.5 L 406.7,96.3 L 417.8,75.0 L 428.9,64.7 L 440.0,46.3 L 451.1,72.9 L 462.2,40.0 L 473.3,55.7 L 484.4,50.3 L 495.6,60.6 L 506.7,130.5 L 517.8,101.1 L 528.9,125.5 L 540.0,182.7 L 551.1,224.7 L 562.2,195.3 L 573.3,235.4 L 584.4,227.8 L 595.6,275.5 L 606.7,239.4 L 617.8,227.8 L 628.9,193.0 L 640.0,181.2 L 651.1,150.3 L 662.2,104.1 L 673.3,106.6 L 684.4,83.9 L 695.6,64.6 L 706.7,72.0 L 717.8,80.8 L 728.9,33.1 L 740.0,64.8 L 751.1,51.3 L 762.2,92.4 L 773.3,66.6 L 784.4,69.3 L 795.6,117.8 L 806.7,162.8 L 817.8,153.8 L 828.9,166.0 L 840.0,207.7 L 851.1,240.6 L 862.2,230.7 L 873.3,275.5 L 884.4,260.8 L 895.6,206.9 L 906.7,201.6 L 917.8,187.9 L 928.9,133.9 L 940.0,140.9 L 951.1,87.0 L 962.2,101.7 L 973.3,73.0 L 984.4,42.1 L 995.6,48.8 L 1006.7,50.3 L 1017.8,50.3 L 1028.9,47.9 L 1040.0,54.5 L 1051.1,78.7 L 1062.2,93.9 L 1073.3,65.8 L 1084.4,148.4 L 1095.6,139.0 L 1106.7,195.6 L 1117.8,199.6 L 1128.9,192.9 L 1140.0,273.6" fill="none" stroke="#3a3a3a" stroke-width="1"/>
<path d="M 40.0,275.5 L 51.1,275.5 L 62.2,236.7 L 73.3,197.3 L 84.4,199.6 L 95.6,142.4 L 106.7,144.6 L 117.8,106.7 L 128.9,98.0 L 140.0,90.8 L 151.1,64.3 L 162.2,62.6 L 173.3,11.1 L 184.4,62.6 L 195.6,50.3 L 206.7,75.8 L 217.8,92.0 L 228.9,96.9 L 240.0,111.3 L 251.1,144.4 L 262.2,150.4 L 273.3,164.5 L 284.4,168.7 L 295.6,184.3 L 306.7,239.5 L 317.8,249.4 L 328.9,225.7 L 340.0,240.7 L 351.1,203.9 L 362.2,177.6 L 373.3,109.0 L 384.4,120.9 L 395.6,109.4 L 406.7,70.5 L 417.8,77.1 L 428.9,76.0 L 440.0,62.8 L 451.1,47.2 L 462.2,88.3 L 473.3,75.0 L 484.4,58.6 L 495.6,127.9 L 506.7,76.1 L 517.8,106.9 L 528.9,127.5 L 540.0,136.8 L 551.1,212.9 L 562.2,210.4 L 573.3,245.4 L 584.4,250.0 L 595.6,266.7 L 606.7,260.8 L 617.8,225.1 L 628.9,238.7 L 640.0,190.9 L 651.1,158.9 L 662.2,139.2 L 673.3,96.8 L 684.4,61.5 L 695.6,77.5 L 706.7,59.4 L 717.8,91.1 L 728.9,46.2 L 740.0,71.0 L 751.1,92.7 L 762.2,56.9 L 773.3,94.8 L 784.4,70.3 L 795.6,111.9 L 806.7,127.5 L 817.8,121.8 L 828.9,174.9 L 840.0,205.5 L 851.1,212.3 L 862.2,275.4 L 873.3,275.5 L 884.4,250.2 L 895.6,219.7 L 906.7,214.6 L 917.8,207.5 L 928.9,140.0 L 940.0,114.6 L 951.1,99.1 L 962.2,64.4 L 973.3,51.8 L 984.4,43.1 L 995.6,24.1 L 1006.7,61.4 L 1017.8,66.7 L 1028.9,52.8 L 1040.0,80.8 L 1051.1,79.7 L 1062.2,48.5 L 1073.3,106.7 L 1084.4,102.4 L 1095.6,106.1 L 1106.7,152.0 L 1117.8,192.5 L 1128.9,233.8 L 1140.0,206.6" fill="none" stroke="#3a3a3a" stroke-width="1"/>
<path d="M 40.0,275.5 L 51.1,234.9 L 62.2,201.4 L 73.3,200.1 L 84.4,133.2 L 95.6,122.7 L 106.7,96.5 L 117.8,94.3 L 128.9,65.9 L 140.0,82.8 L 151.1,84.0 L 162.2,55.9 L 173.3,58.1 L 184.4,55.8 L 195.6,48.4 L 206.7,98.1 L 217.8,69.2 L 228.9,85.2 L 240.0,107.6 L 251.1,151.3 L 262.2,123.2 L 273.3,157.6 L 284.4,224.6 L 295.6,245.3 L 306.7,275.5 L 317.8,275.5 L 328.9,275.5 L 340.0,231.7 L 351.1,198.2 L 362.2,161.4 L 373.3,150.6 L 384.4,93.6 L 395.6,96.2 L 406.7,104.4 L 417.8,92.2 L 428.9,56.8 L 440.0,55.5 L 451.1,35.1 L 462.2,83.9 L 473.3,100.5 L 484.4,26.7 L 495.6,73.9 L 506.7,68.1 L 517.8,107.7 L 528.9,145.8 L 540.0,129.6 L 551.1,160.9 L 562.2,166.8 L 573.3,213.8 L 584.4,271.9 L 595.6,275.5 L 606.7,237.8 L 617.8,238.2 L 628.9,188.7 L 640.0,163.2 L 651.1,161.3 L 662.2,129.0 L 673.3,101.2 L 684.4,78.5 L 695.6,79.9 L 706.7,82.0 L 717.8,43.0 L 728.9,61.1 L 740.0,38.8 L 751.1,50.9 L 762.2,82.1 L 773.3,66.3 L 784.4,70.1 L 795.6,127.3 L 806.7,126.0 L 817.8,151.5 L 828.9,176.2 L 840.0,199.4 L 851.1,203.9 L 862.2,239.2 L 873.3,275.5 L 884.4,261.3 L 895.6,225.3 L 906.7,201.6 L 917.8,184.7 L 928.9,155.3 L 940.0,116.9 L 951.1,95.6 L 962.2,91.7 L 973.3,42.9 L 984.4,38.9 L 995.6,41.0 L 1006.7,45.7 L 1017.8,59.1 L 1028.9,68.6 L 1040.0,68.1 L 1051.1,78.9 L 1062.2,72.9 L 1073.3,78.2 L 1084.4,82.3 L 1095.6,126.8 L 1106.7,149.5 L 1117.8,204.3 L 1128.9,255.6 L 1140.0,246.4" fill="none" stroke="#3a3a3a" stroke-width="1"/>
<path d="M 40.0,273.4 L 51.1,247.2 L 62.2,226.7 L 73.3,211.4 L 84.4,176.7 L 95.6,155.9 L 106.7,118.2 L 117.8,87.8 L 128.9,103.3 L 140.0,72.4 L 151.1,80.3 L 162.2,60.7 L 173.3,17.1 L 184.4,57.5 L 195.6,55.9 L 206.7,100.0 L 217.8,82.1 L 228.9,82.1 L 240.0,109.5 L 251.1,157.9 L 262.2,148.2 L 273.3,167.8 L 284.4,158.3 L 295.6,242.9 L 306.7,256.4 L 317.8,275.5 L 328.9,247.8 L 340.0,250.4 L 351.1,172.8 L 362.2,163.3 L 373.3,154.3 L 384.4,133.0 L 395.6,94.6 L 406.7,99.8 L 417.8,94.8 L 428.9,67.1 L 440.0,46.5 L 451.1,65.5 L 462.2,59.3 L 473.3,71.8 L 484.4,79.7 L 495.6,96.7 L 506.7,105.6 L 517.8,101.8 L 528.9,119.0 L 540.0,146.8 L 551.1,234.7 L 562.2,224.3 L 573.3,216.7 L 584.4,223.5 L 595.6,254.5 L 606.7,252.2 L 617.8,217.7 L 628.9,194.5 L 640.0,139.7 L 651.1,150.4 L 662.2,136.8 L 673.3,92.0 L 684.4,63.4 L 695.6,120.5 L 706.7,78.2 L 717.8,28.9 L 728.9,37.2 L 740.0,70.9 L 751.1,52.7 L 762.2,51.7 L 773.3,62.9 L 784.4,112.8 L 795.6,110.4 L 806.7,98.6 L 817.8,138.8 L 828.9,185.1 L 840.0,161.4 L 851.1,210.3 L 862.2,275.5 L 873.3,275.5 L 884.4,275.5 L 895.6,241.6 L 906.7,206.2 L 917.8,129.3 L 928.9,146.0 L 940.0,118.4 L 951.1,97.8 L 962.2,90.3 L 973.3,87.2 L 984.4,39.8 L 995.6,53.7 L 1006.7,26.0 L 1017.8,36.5 L 1028.9,66.5 L 1040.0,67.8 L 1051.1,78.2 L 1062.2,88.2 L 1073.3,100.9 L 1084.4,118.4 L 1095.6,159.0 L 1106.7,147.3 L 1117.8,169.0 L 1128.9,229.2 L 1140.0,257.9" fill="none" stroke="#3a3a3a" stroke-width="1"/>
<path d="M 40.0,275.5 L 51.1,275.5 L 62.2,245.7 L 73.3,194.8 L 84.4,184.6 L 95.6,141.7 L 106.7,101.8 L 117.8,91.1 L 128.9,71.1 L 140.0,88.3 L 151.1,48.9 L 162.2,40.5 L 173.3,86.9 L 184.4,65.1 L 195.6,62.9 L 206.7,81.9 L 217.8,52.8 L 228.9,85.0 L 240.0,107.4 L 251.1,147.5 L 262.2,191.2 L 273.3,189.3 L 284.4,212.6 L 295.6,249.1 L 306.7,275.5 L 317.8,275.5 L 328.9,261.1 L 340.0,218.9 L 351.1,210.3 L 362.2,164.7 L 373.3,149.8 L 384.4,138.3 L 395.6,81.4 L 406.7,109.5 L 417.8,68.9 L 428.9,89.0 L 440.0,28.7 L 451.1,38.2 L 462.2,39.3 L 473.3,46.3 L 484.4,48.9 L 495.6,101.3 L 506.7,76.2 L 517.8,79.2 L 528.9,170.8 L 540.0,124.5 L 551.1,191.9 L 562.2,178.9 L 573.3,237.1 L 584.4,258.0 L 595.6,253.7 L 606.7,246.8 L 617.8,187.0 L 628.9,202.5 L 640.0,159.6 L 651.1,147.9 L 662.2,147.4 L 673.3,123.1 L 684.4,85.3 L 695.6,39.2 L 706.7,62.4 L 717.8,77.0 L 728.9,63.4 L 740.0,77.4 L 751.1,40.9 L 762.2,40.0 L 773.3,90.8 L 784.4,86.3 L 795.6,91.8 L 806.7,106.1 L 817.8,156.2 L 828.9,156.3 L 840.0,192.7 L 851.1,238.4 L 862.2,251.9 L 873.3,253.4 L 884.4,275.5 L 895.6,193.2 L 906.7,196.0 L 917.8,153.0 L 928.9,136.3 L 940.0,129.4 L 951.1,107.9 L 962.2,94.6 L 973.3,68.4 L 984.4,57.1 L 995.6,82.0 L 1006.7,45.2 L 1017.8,29.9 L 1028.9,43.5 L 1040.0,60.5 L 1051.1,98.7 L 1062.2,63.5 L 1073.3,86.1 L 1084.4,100.5 L 1095.6,160.9 L 1106.7,168.4 L 1117.8,199.1 L 1128.9,220.1 L 1140.0,273.6" fill="none" stroke="#3a3a3a" stroke-width="1"/>
<path d="M 40.0,270.4 L 51.1,256.3 L 62.2,236.2 L 73.3,200.6 L 84.4,174.5 L 95.6,142.1 L 106.7,120.9 L 117.8,101.7 L 128.9,86.3 L 140.0,78.4 L 151.1,65.7 L 162.2,53.1 L 173.3,49.5 L 184.4,55.3 L 195.6,61.1 L 206.7,74.6 L 217.8,72.4 L 228.9,88.7 L 240.0,101.4 L 251.1,130.9 L 262.2,152.3 L 273.3,171.0 L 284.4,197.2 L 295.6,229.1 L 306.7,254.7 L 317.8,271.4 L 328.9,253.0 L 340.0,231.7 L 351.1,196.3 L 362.2,167.5 L 373.3,142.8 L 384.4,119.1 L 395.6,109.1 L 406.7,88.7 L 417.8,76.5 L 428.9,64.8 L 440.0,50.2 L 451.1,53.6 L 462.2,52.6 L 473.3,58.1 L 484.4,57.6 L 495.6,81.8 L 506.7,86.1 L 517.8,105.9 L 528.9,134.0 L 540.0,144.4 L 551.1,177.7 L 562.2,199.1 L 573.3,221.9 L 584.4,252.5 L 595.6,267.1 L 606.7,248.4 L 617.8,219.7 L 628.9,200.3 L 640.0,165.5 L 651.1,151.8 L 662.2,128.2 L 673.3,114.2 L 684.4,91.9 L 695.6,74.0 L 706.7,62.7 L 717.8,60.6 L 728.9,51.6 L 740.0,54.4 L 751.1,50.7 L 762.2,64.6 L 773.3,75.4 L 784.4,92.4 L 795.6,107.9 L 806.7,125.0 L 817.8,145.3 L 828.9,171.6 L 840.0,202.0 L 851.1,219.9 L 862.2,252.4 L 873.3,271.7 L 884.4,255.4 L 895.6,220.8 L 906.7,195.8 L 917.8,172.4 L 928.9,147.5 L 940.0,130.5 L 951.1,110.1 L 962.2,90.3 L 973.3,69.5 L 984.4,62.7 L 995.6,58.4 L 1006.7,55.3 L 1017.8,51.6 L 1028.9,56.1 L 1040.0,65.1 L 1051.1,78.5 L 1062.2,81.0 L 1073.3,99.4 L 1084.4,124.2 L 1095.6,135.3 L 1106.7,167.2 L 1117.8,191.5 L 1128.9,224.0 L 1140.0,247.2" fill="none" stroke="#ff4d3d" stroke-width="2.2" stroke-dasharray="6,4" filter="url(#glowRed)" opacity="0.95"/>
<path d="M 40.0,275.5 L 51.1,252.5 L 62.2,228.8 L 73.3,193.0 L 84.4,168.8 L 95.6,149.7 L 106.7,124.8 L 117.8,106.8 L 128.9,90.2 L 140.0,69.1 L 151.1,65.7 L 162.2,49.3 L 173.3,54.3 L 184.4,56.3 L 195.6,57.0 L 206.7,56.4 L 217.8,75.5 L 228.9,87.0 L 240.0,113.1 L 251.1,122.9 L 262.2,151.5 L 273.3,171.3 L 284.4,192.0 L 295.6,224.5 L 306.7,249.2 L 317.8,275.5 L 328.9,252.7 L 340.0,222.7 L 351.1,192.9 L 362.2,170.5 L 373.3,146.9 L 384.4,128.2 L 395.6,111.2 L 406.7,88.3 L 417.8,75.6 L 428.9,63.7 L 440.0,54.0 L 451.1,51.2 L 462.2,56.9 L 473.3,56.6 L 484.4,63.6 L 495.6,75.9 L 506.7,96.4 L 517.8,108.2 L 528.9,125.3 L 540.0,144.3 L 551.1,172.0 L 562.2,201.4 L 573.3,219.1 L 584.4,251.8 L 595.6,275.5 L 606.7,249.9 L 617.8,221.4 L 628.9,196.9 L 640.0,172.9 L 651.1,148.8 L 662.2,122.3 L 673.3,106.0 L 684.4,87.1 L 695.6,81.6 L 706.7,66.3 L 717.8,58.9 L 728.9,55.6 L 740.0,60.6 L 751.1,59.1 L 762.2,59.3 L 773.3,74.1 L 784.4,90.6 L 795.6,108.0 L 806.7,129.6 L 817.8,146.2 L 828.9,173.6 L 840.0,198.1 L 851.1,220.8 L 862.2,248.5 L 873.3,275.5 L 884.4,257.3 L 895.6,225.7 L 906.7,192.7 L 917.8,175.0 L 928.9,142.7 L 940.0,125.1 L 951.1,102.4 L 962.2,90.3 L 973.3,79.1 L 984.4,68.1 L 995.6,52.7 L 1006.7,55.1 L 1017.8,58.2 L 1028.9,54.8 L 1040.0,69.9 L 1051.1,75.7 L 1062.2,87.7 L 1073.3,104.6 L 1084.4,123.6 L 1095.6,147.3 L 1106.7,179.3 L 1117.8,195.9 L 1128.9,224.0 L 1140.0,252.4" fill="none" stroke="#7CFC00" stroke-width="2.8" filter="url(#glowGreen)"/>
<line x1="40" y1="280" x2="1140" y2="280" stroke="#2a2a2a" stroke-width="1"/>
</g>
<text x="610" y="420" fill="#777" font-size="12" text-anchor="middle" letter-spacing="1.5">FRAME INDEX (0&#8211;99)</text>
<circle cx="30" cy="440" r="4" fill="#555"/>
<text x="42" y="444" fill="#999" font-size="12.5">Individual annotators (faint)</text>
<circle cx="298" cy="440" r="5" fill="#7CFC00" filter="url(#glowGreen)"/>
<text x="312" y="444" fill="#7CFC00" font-size="12.5" font-weight="600">Barycenter x* (mine)</text>
<circle cx="520" cy="440" r="5" fill="#ff4d3d" filter="url(#glowRed)"/>
<text x="534" y="444" fill="#ff4d3d" font-size="12.5" font-weight="600">Arithmetic mean (baseline)</text>
</svg>