<svg viewBox="0 0 640 340" xmlns="http://www.w3.org/2000/svg" font-family="'JetBrains Mono','Fira Code','Courier New',monospace">
<defs>
  <filter id="glowGreen" x="-50%" y="-50%" width="200%" height="200%">
    <feGaussianBlur stdDeviation="3.2" result="blur"/>
    <feMerge><feMergeNode in="blur"/><feMergeNode in="SourceGraphic"/></feMerge>
  </filter>
  <filter id="glowRed" x="-50%" y="-50%" width="200%" height="200%">
    <feGaussianBlur stdDeviation="2.4" result="blur"/>
    <feMerge><feMergeNode in="blur"/><feMergeNode in="SourceGraphic"/></feMerge>
  </filter>
  <linearGradient id="bgGrad" x1="0" y1="0" x2="0" y2="1">
    <stop offset="0%" stop-color="#111111"/>
    <stop offset="100%" stop-color="#050505"/>
  </linearGradient>
</defs>
<rect x="0" y="0" width="640" height="340" fill="url(#bgGrad)" rx="14"/>
<text x="24" y="34" fill="#e8e8e8" font-size="18" font-weight="700">Held-Out W&#178; Distance</text>
<text x="24" y="53" fill="#888" font-size="12" letter-spacing="1.5">LOWER IS BETTER · REAL TVSUM DATA</text>
<line x1="24" y1="65" x2="616" y2="65" stroke="#2a2a2a" stroke-width="1"/>
<line x1="60" y1="280.0" x2="580" y2="280.0" stroke="#1c1c1c" stroke-width="1"/>
<text x="50" y="284.0" fill="#666" font-size="11" text-anchor="end">0.60</text>
<line x1="60" y1="232.5" x2="580" y2="232.5" stroke="#1c1c1c" stroke-width="1"/>
<text x="50" y="236.5" fill="#666" font-size="11" text-anchor="end">0.61</text>
<line x1="60" y1="185.0" x2="580" y2="185.0" stroke="#1c1c1c" stroke-width="1"/>
<text x="50" y="189.0" fill="#666" font-size="11" text-anchor="end">0.62</text>
<line x1="60" y1="137.5" x2="580" y2="137.5" stroke="#1c1c1c" stroke-width="1"/>
<text x="50" y="141.5" fill="#666" font-size="11" text-anchor="end">0.63</text>
<line x1="60" y1="90.0" x2="580" y2="90.0" stroke="#1c1c1c" stroke-width="1"/>
<text x="50" y="94.0" fill="#666" font-size="11" text-anchor="end">0.64</text>
<rect x="140" y="185.5" width="140" height="94.5" fill="#7CFC00" opacity="0.85" filter="url(#glowGreen)" rx="4"/>
<text x="210.0" y="171.5" fill="#7CFC00" font-size="15" font-weight="700" text-anchor="middle">0.6199</text>
<text x="210.0" y="304" fill="#ccc" font-size="12.5" text-anchor="middle" font-weight="600">Wasserstein</text>
<text x="210.0" y="320" fill="#ccc" font-size="12.5" text-anchor="middle" font-weight="600">Barycenter</text>
<rect x="400" y="144.6" width="140" height="135.4" fill="#ff4d3d" opacity="0.85" filter="url(#glowRed)" rx="4"/>
<text x="470.0" y="130.6" fill="#ff4d3d" font-size="15" font-weight="700" text-anchor="middle">0.6285</text>
<text x="470.0" y="304" fill="#ccc" font-size="12.5" text-anchor="middle" font-weight="600">Arithmetic</text>
<text x="470.0" y="320" fill="#ccc" font-size="12.5" text-anchor="middle" font-weight="600">Mean</text>
<line x1="60" y1="280" x2="580" y2="280" stroke="#2a2a2a" stroke-width="1"/>
<text x="616" y="320" fill="#7CFC00" font-size="12" text-anchor="end" font-weight="700">&#8776;1.4% improvement</text>
</svg>